Coordinates
version=1
nRows=65
nColumns=12
inDegrees=yes

Units are S.I. units (second, meters, Newtons, ...)
Angles are in degrees

endheader
time	SC_y	SC_z	SC_x	AC_y	AC_z	AC_x	GH_y	GH_z	GH_yy	EL_x	PS_y
       0.0               -18.7         -3.583          59.11          55.57        -0.6965         -6.302         -83.94          62.42          155.7          66.46          47.94
    0.0351              -18.71          -3.58          59.11          55.57        -0.6955         -6.301         -83.91          62.41          155.7          66.46          47.94
    0.0702              -18.71         -3.576           59.1          55.57        -0.6945           -6.3         -83.89           62.4          155.7          66.46          47.93
    0.1053              -18.72         -3.573           59.1          55.57        -0.6934           -6.3         -83.86          62.39          155.7          66.46          47.92
    0.1404              -18.72         -3.569           59.1          55.58        -0.6922         -6.299         -83.83          62.38          155.7          66.46          47.92
    0.1755              -18.73         -3.565           59.1          55.58         -0.691         -6.298          -83.8          62.37          155.7          66.46          47.91
    0.2106              -18.73          -3.56           59.1          55.58        -0.6896         -6.297         -83.76          62.35          155.7          66.46           47.9
    0.2457              -18.74         -3.556           59.1          55.58        -0.6882         -6.297         -83.73          62.34          155.7          66.46          47.89
    0.2808              -18.74         -3.551          59.09          55.59        -0.6866         -6.296         -83.69          62.32          155.7          66.46          47.88
    0.3159              -18.75         -3.545          59.09          55.59         -0.685         -6.295         -83.65          62.31          155.6          66.46          47.87
     0.351              -18.76          -3.54          59.09          55.59        -0.6832         -6.294          -83.6          62.29          155.6          66.45          47.86
    0.3861              -18.77         -3.533          59.09           55.6        -0.6813         -6.293         -83.55          62.27          155.6          66.45          47.85
    0.4212              -18.78         -3.527          59.09           55.6        -0.6792         -6.291          -83.5          62.25          155.6          66.45          47.83
    0.4563              -18.78         -3.519          59.08          55.61         -0.677          -6.29         -83.44          62.22          155.6          66.45          47.82
    0.4914              -18.79         -3.512          59.08          55.61        -0.6746         -6.289         -83.38           62.2          155.6          66.45          47.81
    0.5265              -18.81         -3.503          59.08          55.62         -0.672         -6.287         -83.32          62.17          155.5          66.45          47.79
    0.5616              -18.82         -3.494          59.07          55.62        -0.6692         -6.285         -83.24          62.14          155.5          66.45          47.77
    0.5967              -18.83         -3.484          59.07          55.63        -0.6661         -6.284         -83.17          62.11          155.5          66.45          47.75
    0.6318              -18.85         -3.473          59.06          55.64        -0.6627         -6.282         -83.08          62.08          155.5          66.45          47.73
    0.6669              -18.86         -3.461          59.06          55.65         -0.659         -6.279         -82.99          62.04          155.4          66.45          47.71
     0.702              -18.88         -3.448          59.05          55.65        -0.6549         -6.277         -82.88           62.0          155.4          66.45          47.68
    0.7371               -18.9         -3.433          59.05          55.66        -0.6505         -6.274         -82.77          61.95          155.4          66.45          47.65
    0.7722              -18.92         -3.417          59.04          55.67        -0.6455         -6.271         -82.64           61.9          155.3          66.44          47.62
    0.8073              -18.94         -3.399          59.04          55.68        -0.6401         -6.268         -82.51          61.85          155.3          66.44          47.59
    0.8424              -18.97         -3.379          59.03           55.7         -0.634         -6.265         -82.35          61.78          155.2          66.44          47.55
    0.8775              -18.99         -3.357          59.02          55.71        -0.6272         -6.261         -82.18          61.72          155.2          66.44           47.5
    0.9126              -19.03         -3.333          59.01          55.73        -0.6196         -6.256         -81.99          61.64          155.1          66.44          47.46
    0.9477              -19.06         -3.305           59.0          55.75        -0.6111         -6.251         -81.77          61.55          155.0          66.43           47.4
    0.9828               -19.1         -3.274          58.99          55.77        -0.6014         -6.245         -81.53          61.45          155.0          66.43          47.34
     1.018              -19.15         -3.238          58.97          55.79        -0.5905         -6.239         -81.25          61.34          154.9          66.43          47.27
     1.053               -19.2         -3.197          58.96          55.81         -0.578         -6.232         -80.93          61.21          154.8          66.42          47.19
     1.088              -19.26          -3.15          58.94          55.85        -0.5636         -6.223         -80.57          61.07          154.6          66.42           47.1
     1.123              -19.33         -3.097          58.92          55.88         -0.547         -6.213         -80.14           60.9          154.5          66.42          46.99
     1.158              -19.41         -3.034          58.89          55.92        -0.5278         -6.202         -79.66           60.7          154.3          66.41          46.87
     1.193              -19.51         -2.961          58.87          55.97        -0.5053         -6.189         -79.08          60.47          154.2           66.4          46.73
     1.228              -19.62         -2.874          58.83          56.02        -0.4787         -6.173         -78.41           60.2          153.9           66.4          46.56
     1.264              -19.76         -2.771          58.79          56.09        -0.4471         -6.155         -77.61          59.88          153.7          66.39          46.36
     1.299              -19.91         -2.648          58.74          56.17        -0.4093         -6.132         -76.65          59.49          153.4          66.37          46.12
     1.334              -20.11         -2.499          58.69          56.26        -0.3635         -6.105         -75.49          59.02          153.0          66.36          45.83
     1.369              -20.34         -2.317          58.61          56.38        -0.3076         -6.072         -74.07          58.45          152.5          66.35          45.47
     1.404              -20.64         -2.093          58.53          56.53        -0.2386         -6.032         -72.32          57.75          151.9          66.32          45.03
     1.439               -21.0         -1.813          58.42          56.71        -0.1525         -5.981         -70.13          56.87          151.2           66.3          44.48
     1.474              -21.46          -1.46          58.28          56.93       -0.04414         -5.917         -67.38          55.76          150.3          66.27          43.79
     1.509              -22.04         -1.012          58.11          57.22        0.09368         -5.836         -63.89          54.35          149.2          66.23          42.91
     1.544              -22.78        -0.4378          57.88          57.59         0.2701         -5.732         -59.41          52.55          147.7          66.18          41.79
     1.579              -23.74         0.2987           57.6          58.07         0.4964         -5.598         -53.67          50.24          145.8          66.11          40.35
     1.615              -24.96           1.24          57.23          58.67         0.7856         -5.428         -46.33          47.29          143.4          66.03          38.51
      1.65              -26.49          2.423          56.77          59.44          1.149         -5.213          -37.1          43.58          140.4          65.92           36.2
     1.685              -28.37          3.864          56.21          60.36          1.592         -4.952         -25.86          39.05          136.7          65.79          33.38
      1.72              -30.53          5.535          55.56          61.44          2.106         -4.649         -12.83          33.81          132.5          65.64          30.11
     1.755              -32.88          7.344          54.85          62.61          2.662         -4.322          1.284          28.13          127.8          65.48          26.57
      1.79              -35.23          9.154          54.15          63.77          3.218         -3.994          15.39          22.45          123.2          65.32          23.03
     1.825               -37.4          10.82           53.5          64.85          3.731         -3.691          28.43          17.21          119.0          65.17          19.76
      1.86              -39.27          12.27          52.94          65.78          4.174          -3.43          39.67          12.68          115.3          65.04          16.94
     1.895               -40.8          13.45          52.48          66.54          4.538         -3.215           48.9           8.97          112.3          64.93          14.63
      1.93              -42.02          14.39          52.11          67.15          4.827         -3.045          56.23          6.017          109.8          64.84          12.78
     1.966              -42.98          15.13          51.83          67.62          5.054         -2.912          61.98          3.706          108.0          64.78          11.34
     2.001              -43.72           15.7           51.6          67.99           5.23         -2.808          66.45          1.904          106.5          64.73          10.22
     2.036              -44.31          16.15          51.43          68.28          5.368         -2.726          69.95          0.497          105.4          64.69          9.344
     2.071              -44.76           16.5          51.29          68.51          5.476         -2.662           72.7          -0.61          104.5          64.66          8.654
     2.106              -45.13          16.78          51.18          68.69          5.562         -2.612          74.89         -1.489          103.7          64.63          8.106
     2.141              -45.42          17.01          51.09          68.83          5.631         -2.571          76.64         -2.193          103.2          64.61          7.667
     2.176              -45.65          17.19          51.02          68.95          5.687         -2.538          78.06         -2.764          102.7          64.59          7.311
     2.211              -45.85          17.34          50.96          69.05          5.733         -2.511          79.22         -3.232          102.3          64.58           7.02
     2.246              -46.01          17.46          50.92          69.12          5.771         -2.489          80.18         -3.618          102.0          64.57          6.779
